<svg width="145" height="43" viewBox="0 0 145 43" fill="none" xmlns="http://www.w3.org/2000/svg">
<path d="M25.8008 9.32141C26.4305 8.19512 27.4757 7.01666 28.6008 6.51822C30.5382 5.55316 33.1342 5.96817 34.7145 7.49526C36.2439 9.01244 37.0198 11.0918 36.6535 13.4166C37.0287 13.3408 37.4073 13.0779 37.8046 12.9282C40.1783 12.1945 42.6889 12.9902 44.2111 15.219C45.3544 16.8101 45.6534 19.282 44.9669 21.2041C44.6263 22.1709 44.0454 23.0402 43.2903 23.7819L43.3665 23.8657C45.5751 23.9832 47.7455 25.8613 48.4155 28.164C49.1416 30.4867 48.5026 32.9688 46.9517 34.6675C45.6844 36.0392 44.0546 36.5139 42.2434 36.4739H9.35644C6.6565 36.5376 4.56986 35.2277 3.44642 32.5983C2.56523 30.3412 3.00053 27.4544 4.6464 25.7339C5.68408 24.5455 6.98417 24.0589 8.38608 23.8139C6.79829 22.2009 6.03361 19.994 6.47985 17.6274C6.79829 15.7096 8.29143 13.7677 10.0063 13.0977C11.5172 12.4398 13.5639 12.5553 14.9477 13.4484L14.9969 13.3825C14.58 10.7727 15.6362 8.41825 17.6131 6.97476C19.3755 5.66911 22.194 5.70278 23.9198 7.09072C24.6954 7.61085 25.3344 8.50409 25.8008 9.32141Z" fill="white"/>
<path d="M35.1118 10.2967C35.8184 11.8579 35.4036 13.9034 34.6659 15.305L28.9602 29.3627L28.9107 29.4285L26.8483 15.1675C26.6826 13.7981 28.0189 13.2138 28.8054 12.5558C28.7655 12.3546 28.5632 12.3645 28.4357 12.2708L26.508 12.2488L26.4492 12.185C26.4602 10.4146 27.3307 8.77975 28.8054 7.92054C30.3461 6.94574 32.5157 7.21077 33.852 8.46087C34.395 8.9909 34.8518 9.60679 35.1118 10.2967Z" fill="#645FAA"/>
<path d="M24.5996 9.80804C25.0656 10.7531 25.3352 11.8259 25.1712 13.0139L22.8444 29.3424C22.857 29.3623 22.8355 29.3843 22.817 29.3941L22.2143 28.0804L16.3829 13.8194C15.8403 11.9832 16.3429 10.0633 17.5644 8.74721C18.7951 7.37965 20.8196 7.00878 22.4292 7.75053C23.2814 8.15339 24.0952 8.89515 24.5996 9.80804Z" fill="#C9234A"/>
<path d="M43.5525 16.6821C44.3373 18.1473 44.1607 20.3646 43.2884 21.7242C42.7479 22.6792 41.8554 23.1557 41.0999 23.7817L29.0165 32.8648H28.9888L29.1237 32.4304L35.5289 16.5985C36.4883 14.7324 38.32 13.7873 40.2574 14.0723C41.5844 14.3377 42.9119 15.2826 43.5525 16.6821Z" fill="#0089CF"/>
<path d="M16.1022 16.5982L22.7677 32.8628H22.6604L9.22249 22.7208C7.85475 21.4589 7.29439 19.5688 7.75839 17.6589C8.10622 16.2274 9.1914 14.8897 10.4823 14.3591C12.5955 13.5119 14.9771 14.413 16.1022 16.5982Z" fill="#F36F21"/>
<path d="M47.0593 28.1634C47.729 29.7126 47.4652 31.8339 46.5075 33.1515C45.5576 34.4138 44.2865 35.1035 42.7951 35.0596L28.4668 35.0697L40.47 25.9247C41.643 25.0973 43.4252 24.9475 44.7051 25.6174C45.6936 26.0421 46.624 27.1028 47.0593 28.1634Z" fill="#0DB14B"/>
<path d="M4.6293 28.1634C3.96132 29.7126 4.22304 31.8339 5.18282 33.1515C6.13303 34.4138 7.39997 35.1035 8.89311 35.0596L23.2218 35.0697L11.2182 25.9247C10.0456 25.0973 8.26339 24.9475 6.98517 25.6174C5.99635 26.0421 5.06631 27.1028 4.6293 28.1634Z" fill="#FDB913"/>
<path d="M69.0624 16.7701C70.2197 16.7701 71.1204 17.1108 71.7644 17.7921C72.4084 18.4641 72.7304 19.4394 72.7304 20.7181V26.7381H70.4624V20.7881C70.4624 20.0974 70.2804 19.5794 69.9164 19.2341C69.5617 18.8794 69.0904 18.7021 68.5024 18.7021C67.8584 18.7021 67.345 18.8888 66.9624 19.2621C66.5797 19.6261 66.3884 20.1814 66.3884 20.9281V26.7381H64.1204V20.7881C64.1204 20.0974 63.9524 19.5794 63.6164 19.2341C63.2804 18.8794 62.823 18.7021 62.2444 18.7021C61.6097 18.7021 61.101 18.8888 60.7184 19.2621C60.3357 19.6261 60.1444 20.1814 60.1444 20.9281V26.7381H57.8764V16.9381H60.0744V18.1421C60.373 17.7034 60.7697 17.3674 61.2644 17.1341C61.759 16.8914 62.3284 16.7701 62.9724 16.7701C63.6444 16.7701 64.2324 16.8961 64.7364 17.1481C65.2404 17.3908 65.6277 17.7454 65.8984 18.2121C66.2344 17.7454 66.673 17.3908 67.2144 17.1481C67.765 16.8961 68.381 16.7701 69.0624 16.7701ZM82.4562 19.2061V26.7381H80.3702V25.8701C79.8289 26.5234 79.0449 26.8501 78.0182 26.8501C77.3089 26.8501 76.6649 26.6914 76.0862 26.3741C75.5169 26.0568 75.0689 25.6041 74.7422 25.0161C74.4155 24.4281 74.2522 23.7468 74.2522 22.9721C74.2522 22.1974 74.4155 21.5161 74.7422 20.9281C75.0689 20.3401 75.5169 19.8874 76.0862 19.5701C76.6649 19.2528 77.3089 19.0941 78.0182 19.0941C78.9795 19.0941 79.7309 19.3974 80.2722 20.0041V19.2061H82.4562ZM78.3962 25.0581C78.9469 25.0581 79.4042 24.8714 79.7682 24.4981C80.1322 24.1154 80.3142 23.6068 80.3142 22.9721C80.3142 22.3374 80.1322 21.8334 79.7682 21.4601C79.4042 21.0774 78.9469 20.8861 78.3962 20.8861C77.8362 20.8861 77.3742 21.0774 77.0102 21.4601C76.6462 21.8334 76.4642 22.3374 76.4642 22.9721C76.4642 23.6068 76.6462 24.1154 77.0102 24.4981C77.3742 24.8714 77.8362 25.0581 78.3962 25.0581ZM88.9302 19.0941C89.6302 19.0941 90.2649 19.2574 90.8342 19.5841C91.4129 19.9014 91.8655 20.3541 92.1922 20.9421C92.5189 21.5208 92.6822 22.1974 92.6822 22.9721C92.6822 23.7468 92.5189 24.4281 92.1922 25.0161C91.8655 25.5948 91.4129 26.0474 90.8342 26.3741C90.2649 26.6914 89.6302 26.8501 88.9302 26.8501C87.9689 26.8501 87.2129 26.5468 86.6622 25.9401V29.4541H84.4782V19.2061H86.5642V20.0741C87.1055 19.4208 87.8942 19.0941 88.9302 19.0941ZM88.5522 25.0581C89.1122 25.0581 89.5695 24.8714 89.9242 24.4981C90.2882 24.1154 90.4702 23.6068 90.4702 22.9721C90.4702 22.3374 90.2882 21.8334 89.9242 21.4601C89.5695 21.0774 89.1122 20.8861 88.5522 20.8861C87.9922 20.8861 87.5302 21.0774 87.1662 21.4601C86.8115 21.8334 86.6342 22.3374 86.6342 22.9721C86.6342 23.6068 86.8115 24.1154 87.1662 24.4981C87.5302 24.8714 87.9922 25.0581 88.5522 25.0581ZM100.199 26.7381L97.8328 23.3361L95.5088 26.7381H92.9048L96.5308 21.7541L93.0868 16.9381H95.6628L97.9168 20.1161L100.129 16.9381H102.579L99.1628 21.6701L102.817 26.7381H100.199ZM108.18 19.0941C108.88 19.0941 109.515 19.2574 110.084 19.5841C110.663 19.9014 111.116 20.3541 111.442 20.9421C111.769 21.5208 111.932 22.1974 111.932 22.9721C111.932 23.7468 111.769 24.4281 111.442 25.0161C111.116 25.5948 110.663 26.0474 110.084 26.3741C109.515 26.6914 108.88 26.8501 108.18 26.8501C107.219 26.8501 106.463 26.5468 105.912 25.9401V29.4541H103.728V19.2061H105.814V20.0741C106.356 19.4208 107.144 19.0941 108.18 19.0941ZM107.802 25.0581C108.362 25.0581 108.82 24.8714 109.174 24.4981C109.538 24.1154 109.72 23.6068 109.72 22.9721C109.72 22.3374 109.538 21.8334 109.174 21.4601C108.82 21.0774 108.362 20.8861 107.802 20.8861C107.242 20.8861 106.78 21.0774 106.416 21.4601C106.062 21.8334 105.884 22.3374 105.884 22.9721C105.884 23.6068 106.062 24.1154 106.416 24.4981C106.78 24.8714 107.242 25.0581 107.802 25.0581ZM116.096 26.8501C115.247 26.8501 114.584 26.6261 114.108 26.1781C113.632 25.7208 113.394 25.0768 113.394 24.2461V16.3501H115.578V24.1201C115.578 24.4374 115.658 24.6848 115.816 24.8621C115.984 25.0301 116.218 25.1141 116.516 25.1141C116.628 25.1141 116.74 25.1001 116.852 25.0721C116.974 25.0441 117.067 25.0114 117.132 24.9741L117.23 26.6681C116.866 26.7894 116.488 26.8501 116.096 26.8501ZM121.75 26.8501C120.956 26.8501 120.242 26.6868 119.608 26.3601C118.982 26.0241 118.492 25.5621 118.138 24.9741C117.783 24.3861 117.606 23.7188 117.606 22.9721C117.606 22.2254 117.783 21.5581 118.138 20.9701C118.492 20.3821 118.982 19.9248 119.608 19.5981C120.242 19.2621 120.956 19.0941 121.75 19.0941C122.543 19.0941 123.252 19.2621 123.878 19.5981C124.503 19.9248 124.993 20.3821 125.348 20.9701C125.702 21.5581 125.88 22.2254 125.88 22.9721C125.88 23.7188 125.702 24.3861 125.348 24.9741C124.993 25.5621 124.503 26.0241 123.878 26.3601C123.252 26.6868 122.543 26.8501 121.75 26.8501ZM121.75 25.0581C122.31 25.0581 122.767 24.8714 123.122 24.4981C123.486 24.1154 123.668 23.6068 123.668 22.9721C123.668 22.3374 123.486 21.8334 123.122 21.4601C122.767 21.0774 122.31 20.8861 121.75 20.8861C121.19 20.8861 120.728 21.0774 120.364 21.4601C120 21.8334 119.818 22.3374 119.818 22.9721C119.818 23.6068 120 24.1154 120.364 24.4981C120.728 24.8714 121.19 25.0581 121.75 25.0581ZM129.426 20.2001C129.687 19.8361 130.037 19.5608 130.476 19.3741C130.924 19.1874 131.437 19.0941 132.016 19.0941V21.1101C131.773 21.0914 131.61 21.0821 131.526 21.0821C130.9 21.0821 130.41 21.2594 130.056 21.6141C129.701 21.9594 129.524 22.4821 129.524 23.1821V26.7381H127.34V19.2061H129.426V20.2001ZM137.04 25.1001C137.432 25.1001 137.777 25.0441 138.076 24.9321C138.384 24.8108 138.668 24.6241 138.93 24.3721L140.092 25.6321C139.382 26.4441 138.346 26.8501 136.984 26.8501C136.134 26.8501 135.383 26.6868 134.73 26.3601C134.076 26.0241 133.572 25.5621 133.218 24.9741C132.863 24.3861 132.686 23.7188 132.686 22.9721C132.686 22.2348 132.858 21.5721 133.204 20.9841C133.558 20.3868 134.039 19.9248 134.646 19.5981C135.262 19.2621 135.952 19.0941 136.718 19.0941C137.436 19.0941 138.09 19.2481 138.678 19.5561C139.266 19.8548 139.732 20.2934 140.078 20.8721C140.432 21.4414 140.61 22.1181 140.61 22.9021L135.038 23.9801C135.196 24.3534 135.444 24.6334 135.78 24.8201C136.125 25.0068 136.545 25.1001 137.04 25.1001ZM136.718 20.7461C136.167 20.7461 135.719 20.9234 135.374 21.2781C135.028 21.6328 134.846 22.1228 134.828 22.7481L138.496 22.0341C138.393 21.6421 138.183 21.3294 137.866 21.0961C137.548 20.8628 137.166 20.7461 136.718 20.7461Z" fill="black"/>
</svg>
