<svg xmlns="http://www.w3.org/2000/svg" version="1.1" xmlns:xlink="http://www.w3.org/1999/xlink" width="64" height="64"><svg width="64" height="64" viewBox="0 0 64 64" fill="none" xmlns="http://www.w3.org/2000/svg">
<path d="M32.4322 17.9961C33.1898 16.641 34.4473 15.2232 35.801 14.6235C38.1319 13.4624 41.2552 13.9617 43.1565 15.799C44.9965 17.6243 45.9301 20.1261 45.4894 22.9231C45.9408 22.8319 46.3963 22.5156 46.8743 22.3355C49.7301 21.4528 52.7508 22.4101 54.5821 25.0916C55.9576 27.0059 56.3173 29.9799 55.4915 32.2924C55.0816 33.4556 54.3828 34.5015 53.4743 35.3938L53.566 35.4947C56.2232 35.636 58.8344 37.8956 59.6405 40.6661C60.5141 43.4606 59.7453 46.4468 57.8794 48.4906C56.3547 50.1409 54.3939 50.7121 52.2147 50.6639H12.6476C9.39922 50.7406 6.88874 49.1646 5.5371 46.0011C4.47692 43.2855 5.00063 39.8123 6.98082 37.7424C8.22928 36.3126 9.79345 35.7271 11.4801 35.4323C9.56982 33.4918 8.64982 30.8366 9.18669 27.9892C9.56982 25.6818 11.3662 23.3455 13.4295 22.5394C15.2473 21.7478 17.7097 21.8869 19.3746 22.9614L19.4337 22.8821C18.9322 19.7422 20.2029 16.9095 22.5814 15.1728C24.7018 13.6019 28.0928 13.6424 30.1692 15.3123C31.1023 15.938 31.8711 17.0127 32.4322 17.9961Z" fill="white"></path>
<path d="M43.6351 19.1695C44.4852 21.0478 43.9861 23.5088 43.0986 25.1951L36.2339 42.1082L36.1743 42.1874L33.693 25.0297C33.4937 23.3821 35.1014 22.6792 36.0477 21.8875C35.9996 21.6454 35.7563 21.6574 35.6029 21.5446L33.2836 21.5181L33.2129 21.4413C33.226 19.3113 34.2735 17.3444 36.0477 16.3107C37.9013 15.1379 40.5117 15.4567 42.1194 16.9608C42.7726 17.5985 43.3222 18.3394 43.6351 19.1695Z" fill="#645FAA"></path>
<path d="M30.987 18.5816C31.5478 19.7186 31.8721 21.0093 31.6748 22.4387L28.8753 42.0839C28.8905 42.1078 28.8646 42.1344 28.8424 42.1461L28.1173 40.5655L21.1013 23.4078C20.4485 21.1986 21.0532 18.8888 22.5228 17.3053C24.0036 15.66 26.4392 15.2138 28.3758 16.1062C29.4011 16.5909 30.3803 17.4833 30.987 18.5816Z" fill="#C9234A"></path>
<path d="M53.7896 26.852C54.7338 28.6148 54.5213 31.2824 53.4718 32.9183C52.8215 34.0673 51.7477 34.6406 50.8388 35.3937L36.3009 46.3218H36.2676L36.43 45.7991L44.1361 26.7515C45.2904 24.5062 47.4943 23.3692 49.8251 23.7121C51.4217 24.0314 53.0188 25.1682 53.7896 26.852Z" fill="#0089CF"></path>
<path d="M20.7637 26.751L28.7831 46.3194H28.654L12.4865 34.1173C10.841 32.5991 10.1668 30.325 10.725 28.0271C11.1435 26.3048 12.4491 24.6955 14.0022 24.0571C16.5447 23.0378 19.41 24.1219 20.7637 26.751Z" fill="#F36F21"></path>
<path d="M58.0092 40.6655C58.8149 42.5293 58.4976 45.0814 57.3453 46.6667C56.2025 48.1854 54.6733 49.0152 52.8789 48.9623L35.6401 48.9745L50.0815 37.972C51.4927 36.9765 53.6369 36.7962 55.1768 37.6022C56.3661 38.1133 57.4855 39.3894 58.0092 40.6655Z" fill="#0DB14B"></path>
<path d="M6.96062 40.6655C6.15695 42.5293 6.47184 45.0814 7.62657 46.6667C8.76979 48.1854 10.2941 49.0152 12.0905 48.9623L29.3297 48.9745L14.8879 37.972C13.4771 36.9765 11.3329 36.7962 9.79503 37.6022C8.60535 38.1133 7.48639 39.3894 6.96062 40.6655Z" fill="#FDB913"></path>
</svg><style>@media (prefers-color-scheme: light) { :root { filter: none; } }
@media (prefers-color-scheme: dark) { :root { filter: none; } }
</style></svg>